<?xml version="1.0" standalone="no"?>
<!DOCTYPE svg PUBLIC "-//W3C//DTD SVG 20010904//EN"
 "http://www.w3.org/TR/2001/REC-SVG-20010904/DTD/svg10.dtd">
<svg version="1.0" xmlns="http://www.w3.org/2000/svg"
 width="240.000000pt" height="240.000000pt" viewBox="0 0 240.000000 240.000000"
 preserveAspectRatio="xMidYMid meet">
<metadata>
Created by potrace 1.11, written by Peter Selinger 2001-2013
</metadata>
<g transform="translate(0.000000,240.000000) scale(0.100000,-0.100000)"
fill="#000000" stroke="none">
<path d="M320 1260 l0 -1140 60 0 60 0 0 -60 0 -60 285 0 285 0 0 455 0 455
470 0 470 0 0 245 0 245 -60 0 -60 0 0 60 0 60 -410 0 -410 0 0 130 0 130 540
0 540 0 0 245 0 245 -60 0 -60 0 0 65 0 65 -825 0 -825 0 0 -1140z m1530 885
l0 -125 -542 -2 -543 -3 0 -305 0 -305 473 -3 472 -2 0 -125 0 -125 -472 -2
-473 -3 -3 -453 -2 -452 -160 0 -160 0 0 1015 0 1015 705 0 705 0 0 -125z"/>
</g>
</svg>
